<svg xmlns="http://www.w3.org/2000/svg" viewBox="0 0 860 420" width="860" height="420">
  <defs>
    <marker id="a" markerWidth="6" markerHeight="5" refX="6" refY="2.5" orient="auto">
      <polygon points="0 0, 6 2.5, 0 5" fill="#555" />
    </marker>
  </defs>

  <rect width="860" height="420" fill="#0f1117" rx="8" />

  <!-- Titulo -->
  <text x="430" y="30" font-family="monospace" font-size="12" fill="#888" text-anchor="middle" letter-spacing="2">ARQUITETURA</text>

  <!-- Clientes MCP -->
  <g font-family="monospace">
    <rect x="40" y="50" width="130" height="40" rx="4" fill="#1a1a2e" stroke="#444" stroke-width="1" />
    <text x="105" y="68" font-size="11" fill="#ccc" text-anchor="middle">Claude Code</text>
    <text x="105" y="82" font-size="8" fill="#555" text-anchor="middle">MCP client</text>

    <rect x="190" y="50" width="130" height="40" rx="4" fill="#1a1a2e" stroke="#444" stroke-width="1" />
    <text x="255" y="68" font-size="11" fill="#ccc" text-anchor="middle">Gemini CLI</text>
    <text x="255" y="82" font-size="8" fill="#555" text-anchor="middle">MCP client</text>

    <rect x="340" y="50" width="130" height="40" rx="4" fill="#1a1a2e" stroke="#444" stroke-width="1" />
    <text x="405" y="68" font-size="11" fill="#ccc" text-anchor="middle">Codex</text>
    <text x="405" y="82" font-size="8" fill="#555" text-anchor="middle">MCP client</text>

    <rect x="530" y="50" width="130" height="40" rx="4" fill="#1a1a2e" stroke="#444" stroke-width="1" stroke-dasharray="4,3" />
    <text x="595" y="68" font-size="11" fill="#ccc" text-anchor="middle">Sua App</text>
    <text x="595" y="82" font-size="8" fill="#555" text-anchor="middle">import direto</text>
  </g>

  <!-- Setas clientes → MCP -->
  <line x1="105" y1="90" x2="270" y2="130" stroke="#444" stroke-width="1" marker-end="url(#a)" />
  <line x1="255" y1="90" x2="310" y2="130" stroke="#444" stroke-width="1" marker-end="url(#a)" />
  <line x1="405" y1="90" x2="370" y2="130" stroke="#444" stroke-width="1" marker-end="url(#a)" />

  <!-- Seta Sua App → Core -->
  <line x1="595" y1="90" x2="530" y2="200" stroke="#444" stroke-width="1" marker-end="url(#a)" />

  <!-- MCP Server -->
  <rect x="200" y="128" width="240" height="38" rx="4" fill="#1a1a2e" stroke="#7c3aed" stroke-width="1" />
  <text x="320" y="147" font-family="monospace" font-size="11" fill="#a78bfa" text-anchor="middle">spectrum-mcp</text>
  <text x="320" y="160" font-family="monospace" font-size="8" fill="#555" text-anchor="middle">servidor MCP (stdio)</text>

  <!-- Seta MCP → Core -->
  <line x1="320" y1="166" x2="400" y2="198" stroke="#444" stroke-width="1" marker-end="url(#a)" />

  <!-- CLI -->
  <rect x="40" y="190" width="150" height="38" rx="4" fill="#1a1a2e" stroke="#444" stroke-width="1" />
  <text x="115" y="209" font-family="monospace" font-size="11" fill="#ccc" text-anchor="middle">CLI (spm)</text>
  <text x="115" y="222" font-family="monospace" font-size="8" fill="#555" text-anchor="middle">npm ou pip</text>

  <!-- Seta CLI → Core -->
  <line x1="190" y1="210" x2="290" y2="215" stroke="#444" stroke-width="1" marker-end="url(#a)" />

  <!-- Core -->
  <rect x="295" y="196" width="480" height="48" rx="4" fill="#1a1a2e" stroke="#7c3aed" stroke-width="1.5" />
  <text x="535" y="218" font-family="monospace" font-size="13" fill="#f0f0f0" text-anchor="middle">Spectrum Core</text>
  <text x="535" y="234" font-family="monospace" font-size="9" fill="#666" text-anchor="middle">save · get · search · searchSemantic · list · delete</text>

  <!-- Labels interfaces -->
  <text x="320" y="270" font-family="monospace" font-size="8" fill="#555" text-anchor="middle">StorageProvider</text>
  <text x="660" y="270" font-family="monospace" font-size="8" fill="#555" text-anchor="middle">EmbeddingProvider</text>

  <!-- Setas Core → bottom -->
  <line x1="430" y1="244" x2="320" y2="278" stroke="#444" stroke-width="1" marker-end="url(#a)" />
  <line x1="660" y1="244" x2="660" y2="278" stroke="#444" stroke-width="1" marker-end="url(#a)" />

  <!-- SQLite Storage -->
  <rect x="160" y="280" width="320" height="90" rx="4" fill="#1a1a2e" stroke="#444" stroke-width="1" />
  <text x="320" y="302" font-family="monospace" font-size="11" fill="#ccc" text-anchor="middle">SqliteStorage</text>
  <line x1="175" y1="310" x2="465" y2="310" stroke="#333" stroke-width="0.5" />
  <text x="180" y="328" font-family="monospace" font-size="9" fill="#666">~/.spectrum/spectrum.db</text>
  <text x="180" y="342" font-family="monospace" font-size="9" fill="#555">modo WAL · embeddings como BLOB</text>
  <text x="180" y="356" font-family="monospace" font-size="9" fill="#555">mesmo banco: Node e Python</text>

  <!-- Embeddings -->
  <rect x="520" y="280" width="290" height="90" rx="4" fill="#1a1a2e" stroke="#444" stroke-width="1" />
  <text x="665" y="302" font-family="monospace" font-size="11" fill="#ccc" text-anchor="middle">EmbeddingProvider</text>
  <line x1="535" y1="310" x2="795" y2="310" stroke="#333" stroke-width="0.5" />
  <text x="535" y="328" font-family="monospace" font-size="9" fill="#666">all-MiniLM-L6-v2</text>
  <text x="535" y="342" font-family="monospace" font-size="9" fill="#555">384 dimensoes · ONNX</text>
  <text x="535" y="356" font-family="monospace" font-size="9" fill="#555">roda local, sem GPU, sem internet</text>

  <!-- Rodape -->
  <text x="430" y="404" font-family="monospace" font-size="9" fill="#444" text-anchor="middle">interfaces plugaveis — traga seu proprio storage ou provider de embeddings</text>
</svg>
