<svg xmlns="http://www.w3.org/2000/svg" viewBox="0 0 860 420" width="860" height="420">
  <defs>
    <marker id="a" markerWidth="6" markerHeight="5" refX="6" refY="2.5" orient="auto">
      <polygon points="0 0, 6 2.5, 0 5" fill="#555" />
    </marker>
  </defs>

  <rect width="860" height="420" fill="#0f1117" rx="8" />

  <!-- Titulo -->
  <text x="430" y="30" font-family="monospace" font-size="12" fill="#888" text-anchor="middle" letter-spacing="2">BUSCA SEMANTICA</text>

  <!-- PASSO 1: SALVAR -->
  <text x="40" y="62" font-family="monospace" font-size="10" fill="#7c3aed" letter-spacing="1">1. SALVAR</text>

  <rect x="40" y="72" width="290" height="34" rx="4" fill="#1a1a2e" stroke="#444" stroke-width="1" />
  <text x="52" y="94" font-family="monospace" font-size="10" fill="#ccc">"Escolhemos PostgreSQL por ACID"</text>

  <line x1="330" y1="89" x2="380" y2="89" stroke="#444" stroke-width="1" marker-end="url(#a)" />

  <rect x="385" y="72" width="160" height="34" rx="4" fill="#1a1a2e" stroke="#7c3aed" stroke-width="1" />
  <text x="465" y="87" font-family="monospace" font-size="10" fill="#a78bfa" text-anchor="middle">all-MiniLM-L6-v2</text>
  <text x="465" y="100" font-family="monospace" font-size="8" fill="#555" text-anchor="middle">384 dimensoes</text>

  <line x1="545" y1="89" x2="595" y2="89" stroke="#444" stroke-width="1" marker-end="url(#a)" />

  <rect x="600" y="72" width="220" height="34" rx="4" fill="#1a1a2e" stroke="#444" stroke-width="1" />
  <text x="710" y="94" font-family="monospace" font-size="10" fill="#888" text-anchor="middle">[0.023, -0.041, ...] x384</text>

  <!-- PASSO 2: ESPACO VETORIAL -->
  <text x="40" y="136" font-family="monospace" font-size="10" fill="#7c3aed" letter-spacing="1">2. ESPACO VETORIAL</text>

  <rect x="40" y="146" width="780" height="140" rx="4" fill="#1a1a2e" stroke="#333" stroke-width="1" />

  <!-- Eixos -->
  <line x1="65" y1="270" x2="790" y2="270" stroke="#333" stroke-width="0.5" />
  <line x1="65" y1="270" x2="65" y2="156" stroke="#333" stroke-width="0.5" />

  <!-- Cluster: memorias de banco (proximas) -->
  <circle cx="230" cy="200" r="5" fill="#7c3aed" opacity="0.8" />
  <text x="245" y="203" font-family="monospace" font-size="9" fill="#ccc">"Escolhemos PostgreSQL por ACID"</text>

  <circle cx="260" cy="225" r="4" fill="#7c3aed" opacity="0.5" />
  <text x="275" y="228" font-family="monospace" font-size="9" fill="#888">"Banco e relacional"</text>

  <circle cx="210" cy="240" r="3" fill="#7c3aed" opacity="0.4" />
  <text x="110" y="248" font-family="monospace" font-size="9" fill="#888">"SQL ao inves de NoSQL"</text>

  <!-- Memorias distantes -->
  <circle cx="580" cy="258" r="3" fill="#444" opacity="0.5" />
  <text x="593" y="261" font-family="monospace" font-size="9" fill="#555">"Deploy usa Docker"</text>

  <circle cx="660" cy="188" r="3" fill="#444" opacity="0.4" />
  <text x="673" y="191" font-family="monospace" font-size="9" fill="#555">"Frontend usa React"</text>

  <circle cx="480" cy="262" r="2.5" fill="#444" opacity="0.3" />
  <text x="493" y="265" font-family="monospace" font-size="9" fill="#444">"Testes com vitest"</text>

  <circle cx="140" cy="262" r="2.5" fill="#444" opacity="0.3" />
  <text x="100" y="265" font-family="monospace" font-size="9" fill="#444">"Redis pra cache"</text>

  <!-- Legenda -->
  <circle cx="630" cy="165" r="3" fill="#7c3aed" opacity="0.7" />
  <text x="640" y="168" font-family="monospace" font-size="8" fill="#888">significado similar = perto</text>

  <circle cx="630" cy="178" r="3" fill="#444" opacity="0.4" />
  <text x="640" y="181" font-family="monospace" font-size="8" fill="#555">significado diferente = longe</text>

  <!-- PASSO 3: BUSCAR -->
  <text x="40" y="316" font-family="monospace" font-size="10" fill="#7c3aed" letter-spacing="1">3. BUSCAR POR SIGNIFICADO</text>

  <rect x="40" y="326" width="260" height="44" rx="4" fill="#1a1a2e" stroke="#444" stroke-width="1" />
  <text x="52" y="344" font-family="monospace" font-size="9" fill="#555">busca:</text>
  <text x="98" y="344" font-family="monospace" font-size="10" fill="#ccc">"qual banco escolhemos?"</text>
  <text x="52" y="360" font-family="monospace" font-size="8" fill="#555">palavras diferentes, mesmo sentido</text>

  <line x1="300" y1="348" x2="350" y2="348" stroke="#444" stroke-width="1" marker-end="url(#a)" />

  <rect x="355" y="326" width="170" height="44" rx="4" fill="#1a1a2e" stroke="#444" stroke-width="1" />
  <text x="440" y="348" font-family="monospace" font-size="10" fill="#888" text-anchor="middle">similaridade cosseno</text>
  <text x="440" y="362" font-family="monospace" font-size="8" fill="#555" text-anchor="middle">compara vetores</text>

  <line x1="525" y1="348" x2="575" y2="348" stroke="#444" stroke-width="1" marker-end="url(#a)" />

  <rect x="580" y="326" width="240" height="44" rx="4" fill="#1a1a2e" stroke="#7c3aed" stroke-width="1" />
  <text x="592" y="344" font-family="monospace" font-size="9" fill="#7c3aed">score: 0.92</text>
  <text x="592" y="360" font-family="monospace" font-size="10" fill="#ccc">"Escolhemos PostgreSQL por ACID"</text>

  <!-- Rodape -->
  <text x="430" y="404" font-family="monospace" font-size="9" fill="#444" text-anchor="middle">encontra por significado, nao por palavras exatas</text>
</svg>
